HIERARCHY
ROOT Hips
{
 OFFSET 0.000000 0.000000 0.000000
 CHANNELS 6 Xposition Yposition Zposition Yrotation Xrotation Zrotation
 JOINT Chest
 {
  OFFSET 0.000000 9.585900 0.002600
  CHANNELS 3 Yrotation Xrotation Zrotation
  JOINT Chest2
  {
   OFFSET 0.000000 9.601200 -0.005300
   CHANNELS 3 Yrotation Xrotation Zrotation
   JOINT Chest3
   {
    OFFSET 0.000000 9.561800 0.000000
    CHANNELS 3 Yrotation Xrotation Zrotation
    JOINT Chest4
    {
     OFFSET 0.000000 9.552100 0.000000
     CHANNELS 3 Yrotation Xrotation Zrotation
     JOINT Neck
     {
      OFFSET 0.000000 14.453000 0.000000
      CHANNELS 3 Yrotation Xrotation Zrotation
      JOINT Head
      {
       OFFSET 0.000000 8.936500 -0.011300
       CHANNELS 3 Yrotation Xrotation Zrotation
       End Site
       {
        OFFSET 0.000000 17.073600 -0.006000
       }
      }
     }
     JOINT RightCollar
     {
      OFFSET -2.921100 9.558500 0.000000
      CHANNELS 3 Yrotation Xrotation Zrotation
      JOINT RightShoulder
      {
       OFFSET -13.519700 0.000000 0.000000
       CHANNELS 3 Yrotation Xrotation Zrotation
       JOINT RightElbow
       {
        OFFSET 0.000000 -29.696600 0.000000
        CHANNELS 3 Yrotation Xrotation Zrotation
        JOINT RightWrist
        {
         OFFSET 0.000000 -24.004700 0.000000
         CHANNELS 3 Yrotation Xrotation Zrotation
         End Site
         {
          OFFSET 0.000000 -17.728500 0.000000
         }
        }
       }
      }
     }
     JOINT LeftCollar
     {
      OFFSET 2.921100 9.558500 0.000000
      CHANNELS 3 Yrotation Xrotation Zrotation
      JOINT LeftShoulder
      {
       OFFSET 13.519700 0.000000 0.000000
       CHANNELS 3 Yrotation Xrotation Zrotation
       JOINT LeftElbow
       {
        OFFSET 0.000000 -29.696600 0.000000
        CHANNELS 3 Yrotation Xrotation Zrotation
        JOINT LeftWrist
        {
         OFFSET 0.000000 -24.004700 0.000000
         CHANNELS 3 Yrotation Xrotation Zrotation
         End Site
         {
          OFFSET 0.000000 -17.728500 0.000000
         }
        }
       }
      }
     }
    }
   }
  }
 }
 JOINT RightHip
 {
  OFFSET -7.771700 -0.012900 -0.001300
  CHANNELS 3 Yrotation Xrotation Zrotation
  JOINT RightKnee
  {
   OFFSET 0.000000 -40.869800 0.001200
   CHANNELS 3 Yrotation Xrotation Zrotation
   JOINT RightAnkle
   {
    OFFSET 0.000000 -39.717900 0.002100
    CHANNELS 3 Yrotation Xrotation Zrotation
    JOINT RightToe
    {
     OFFSET 0.000000 -4.965400 11.033500
     CHANNELS 3 Yrotation Xrotation Zrotation
     End Site
     {
      OFFSET 0.000000 -1.423100 5.872300
     }
    }
   }
  }
 }
 JOINT LeftHip
 {
  OFFSET 7.771700 -0.012900 -0.001300
  CHANNELS 3 Yrotation Xrotation Zrotation
  JOINT LeftKnee
  {
   OFFSET 0.000000 -40.869800 0.001200
   CHANNELS 3 Yrotation Xrotation Zrotation
   JOINT LeftAnkle
   {
    OFFSET 0.000000 -39.717900 0.002100
    CHANNELS 3 Yrotation Xrotation Zrotation
    JOINT LeftToe
    {
     OFFSET 0.000000 -4.965400 11.033500
     CHANNELS 3 Yrotation Xrotation Zrotation
     End Site
     {
      OFFSET 0.000000 -1.423100 5.872300
     }
    }
   }
  }
 }
}
MOTION
Frames: 13
Frame Time: 0.008333
0.000000 85.388000 0.000000 0.000000 -5.767877 0.000000 0.000000 11.653817 0.000000 0.000000 -5.885947 0.000000 0.000000 -0.000000 0.000000 0.000000 -0.000000 0.000000 0.000000 12.528835 0.000000 0.000000 0.711642 0.000000 0.000000 -0.000000 0.000000 0.000000 0.000000 -90.000000 0.000000 -2.309062 0.000000 0.000000 2.309062 0.000000 0.000000 -0.000000 0.000000 0.000000 -0.000000 90.000000 0.000000 -2.309062 0.000000 0.000000 2.309062 0.000000 0.000000 8.520406 0.000000 0.000000 1.905762 0.000000 -0.000000 -4.658285 0.000000 0.000000 -0.000000 0.000000 0.000000 8.520406 0.000000 0.000000 1.905762 0.000000 -0.000000 -4.658285 0.000000 0.000000 -0.000000 0.000000
-91.515307 44.452409 19.839794 174.878902 -42.344403 0.905977 3.037493 21.671239 2.901145 0.286249 2.973073 0.346002 0.475043 4.832668 0.570720 2.132084 18.394321 2.462064 -4.274381 19.512116 -4.648239 -3.527985 -4.931684 -4.015821 18.738999 0.215021 -5.686212 27.752204 -40.087554 -25.129021 174.821092 -48.319224 -156.469446 1.911554 -4.284656 -48.944352 -10.991284 1.728747 -4.091923 18.404048 -7.316926 -1.765042 158.247833 -57.816498 179.910656 16.575429 5.171091 43.686925 1.878637 -49.841741 7.306611 -149.550601 73.805852 -147.535457 -9.313870 -19.728639 7.031358 -0.056130 -0.693445 0.026495 4.079222 -35.012828 -2.546201 173.186998 60.119348 173.011755 -2.050528 -39.510474 2.571860 0.123060 0.286754 0.081601
-91.508068 44.454515 19.856151 174.908829 -42.461029 0.875281 3.050189 21.653321 2.918460 0.290928 2.981917 0.347812 0.482626 4.846243 0.573628 2.159724 18.414148 2.473155 -4.338615 19.581757 -4.656370 -3.596872 -4.850548 -4.011630 18.665656 0.193955 -5.694748 27.666200 -39.986992 -24.995513 174.809737 -48.295574 -156.462491 1.926457 -4.307115 -48.827897 -11.004516 1.781918 -4.064384 18.693610 -7.144791 -1.864117 157.867609 -57.384723 -179.865381 16.577853 4.518410 43.236026 1.879106 -49.731804 7.306309 -149.538935 73.828636 -147.505532 -9.318422 -19.709349 7.042820 -0.070258 -0.636053 0.006900 4.009610 -34.935807 -2.487681 173.261655 60.127932 173.064589 -2.047743 -39.430995 2.562362 0.136941 0.256730 0.086376
-91.501601 44.456909 19.873197 174.921202 -42.599370 0.866199 3.065939 21.657752 2.924762 0.294678 2.988988 0.349375 0.488729 4.857039 0.576162 2.182015 18.429724 2.482769 -4.378684 19.662831 -4.661251 -3.612388 -4.771246 -4.035276 18.595760 0.175263 -5.697256 27.590783 -39.843352 -24.872164 174.807869 -48.226179 -156.484346 1.917860 -4.311254 -48.698030 -11.023257 1.852023 -4.043894 19.012576 -6.998269 -1.956580 157.334345 -56.935587 -179.544230 16.619420 3.755757 42.713105 1.906999 -49.598485 7.286385 -149.560431 73.847547 -147.504913 -9.322517 -19.733104 7.067225 -0.089917 -0.579588 -0.018930 3.964940 -34.828054 -2.447066 173.321772 60.135805 173.108072 -2.033406 -39.365756 2.541526 0.141159 0.234729 0.092861
-91.496862 44.459474 19.889720 174.923974 -42.754924 0.876859 3.077710 21.678987 2.918184 0.297916 2.993856 0.350509 0.494004 4.864437 0.578126 2.201651 18.440047 2.490537 -4.416580 19.766625 -4.653534 -3.552338 -4.693373 -4.102263 18.523925 0.162078 -5.688704 27.546030 -39.716942 -24.773796 174.840427 -48.201044 -156.506057 1.909565 -4.323932 -48.583741 -11.059569 1.953324 -4.036988 19.350468 -6.889572 -2.044071 156.647605 -56.444211 -179.111577 16.701158 2.943239 42.120991 1.938616 -49.444807 7.259508 -149.565840 73.856049 -147.496267 -9.327819 -19.791110 7.095445 -0.084299 -0.473428 -0.047966 3.950088 -34.692332 -2.435514 173.360808 60.149520 173.143720 -2.012843 -39.318111 2.517880 0.143840 0.243064 0.087214
-91.492835 44.459562 19.907688 174.905385 -42.900305 0.905157 3.100232 21.687773 2.907679 0.301236 2.996438 0.351421 0.499461 4.868316 0.579689 2.222667 18.444652 2.497938 -4.333857 19.856168 -4.703179 -3.536882 -4.550664 -4.097761 18.445112 0.155589 -5.665353 27.529525 -39.607117 -24.695942 174.905991 -48.211337 -156.543068 1.896522 -4.342139 -48.455985 -11.062222 2.055975 -4.012891 19.634903 -6.777635 -2.145675 155.809390 -55.906186 -178.551481 16.818665 2.149437 41.484593 1.964759 -49.304925 7.247301 -149.599932 73.875119 -147.535986 -9.351034 -19.845832 7.131845 -0.073673 -0.385967 -0.073720 3.955618 -34.566542 -2.430990 173.388483 60.160120 173.171644 -1.997273 -39.272009 2.494350 0.146679 0.241226 0.089198
-91.489941 44.456676 19.927058 174.872652 -43.027537 0.946072 3.132527 21.675996 2.892578 0.305055 2.996571 0.352352 0.505758 4.868500 0.581237 2.247714 18.442762 2.506850 -4.232785 19.978231 -4.732461 -3.470331 -4.401196 -4.123034 18.362930 0.157877 -5.625611 27.547247 -39.544059 -24.679996 174.980067 -48.269680 -156.628770 1.831136 -4.359935 -48.277560 -11.030402 2.152338 -3.956225 19.875598 -6.654712 -2.276648 154.819254 -55.344781 -177.885726 16.964754 1.393004 40.817397 1.948099 -49.198735 7.275300 -149.599241 73.875647 -147.576008 -9.380682 -19.861206 7.159807 -0.065085 -0.354106 -0.085236 3.963061 -34.469947 -2.426569 173.419004 60.159317 173.195527 -1.982174 -39.200405 2.457743 0.152043 0.215798 0.100408
-91.486272 44.454437 19.943952 174.864266 -43.166028 0.962058 3.152499 21.671920 2.887409 0.309357 2.994588 0.353566 0.512752 4.865453 0.583403 2.276499 18.435018 2.518997 -4.121243 20.120227 -4.751378 -3.346817 -4.242216 -4.170087 18.279405 0.169241 -5.573320 27.530167 -39.477028 -24.630073 175.161995 -48.358155 -156.718814 1.818426 -4.388852 -48.115746 -11.047781 2.276503 -3.931343 20.174339 -6.588118 -2.400012 153.741323 -54.788058 -177.195483 17.139571 0.675846 40.119213 1.935917 -49.066140 7.287458 -149.532221 73.877687 -147.528268 -9.382477 -19.896589 7.179653 -0.079544 -0.357917 -0.079278 3.945938 -34.359339 -2.414031 173.442023 60.160446 173.214274 -1.966514 -39.145274 2.425023 0.154987 0.197356 0.108852
-91.481959 44.450977 19.960534 174.839448 -43.296836 0.979518 3.191137 21.658757 2.893747 0.313686 2.991733 0.355024 0.519787 4.861000 0.585986 2.305992 18.424838 2.533029 -3.974002 20.267695 -4.766672 -3.185514 -4.077612 -4.221151 18.194009 0.182487 -5.515767 27.491452 -39.409155 -24.578580 175.412202 -48.459770 -156.845236 1.804890 -4.423365 -47.926621 -11.066671 2.397521 -3.908419 20.482329 -6.547556 -2.531316 152.711561 -54.239510 -176.576824 17.343366 0.016073 39.400501 1.920933 -48.943442 7.321066 -149.368375 73.878077 -147.395979 -9.365439 -19.893605 7.200178 -0.098522 -0.359942 -0.083148 3.934189 -34.255220 -2.391860 173.461617 60.155072 173.225877 -1.938291 -39.094117 2.388437 0.146165 0.175092 0.115032
-91.482245 44.447531 19.975426 174.851879 -43.429478 0.993546 3.197453 21.648460 2.877923 0.317804 2.989016 0.356588 0.526520 4.856805 0.588565 2.334300 18.415072 2.547109 -3.789905 20.413260 -4.775824 -2.985629 -3.915808 -4.273697 18.107559 0.193531 -5.459192 27.425529 -39.341244 -24.518172 175.692523 -48.557213 -156.995132 1.759034 -4.459767 -47.685969 -11.085048 2.503501 -3.884404 20.776238 -6.525977 -2.664197 151.857994 -53.693051 -176.098863 17.551933 -0.567333 38.696080 1.874749 -48.823674 7.345802 -149.258995 73.865733 -147.329863 -9.377036 -19.867169 7.207723 -0.104732 -0.393377 -0.073839 3.913841 -34.150072 -2.402665 173.461510 60.159350 173.225227 -1.931574 -39.043803 2.362265 0.162689 0.193237 0.106685
-91.482315 44.440425 19.993104 174.869295 -43.531246 0.996087 3.205991 21.608138 2.870645 0.321777 2.986893 0.358276 0.533033 4.853509 0.591381 2.361517 18.406724 2.561703 -3.572751 20.556011 -4.778567 -2.751433 -3.757618 -4.326659 18.020670 0.201937 -5.406935 27.337152 -39.269599 -24.450147 176.019043 -48.657991 -157.169534 1.707298 -4.492573 -47.408062 -11.100382 2.589147 -3.859042 21.057477 -6.522492 -2.795514 151.244095 -53.161309 -175.799741 17.730155 -1.067669 38.053497 1.841294 -48.734768 7.369901 -149.062514 73.857767 -147.177142 -9.364571 -19.818785 7.227425 -0.106051 -0.415378 -0.073039 3.870928 -34.093852 -2.408307 173.457553 60.149800 173.211948 -1.909700 -38.968004 2.324002 0.160445 0.159278 0.109143
-91.480802 44.435312 20.007911 174.854720 -43.649988 1.009354 3.243869 21.589077 2.879702 0.325680 2.985827 0.360215 0.517585 4.918791 0.595476 2.408712 18.334241 2.572092 -3.328482 20.694391 -4.775050 -2.489410 -3.604447 -4.378986 17.935365 0.204435 -5.362862 27.255082 -39.186353 -24.374598 176.340147 -48.763081 -157.333450 1.653049 -4.511454 -47.103506 -11.109808 2.652597 -3.833289 21.329871 -6.541658 -2.919775 150.871133 -52.659403 -175.680760 17.856738 -1.489512 37.504231 1.854096 -48.633416 7.382610 -148.893025 73.854194 -147.026303 -9.337345 -19.739937 7.232036 -0.109956 -0.461066 -0.064699 3.862031 -34.001986 -2.402161 173.456205 60.145128 173.211979 -1.885175 -38.919775 2.287580 0.160057 0.154681 0.108411
-91.476814 44.432023 20.020289 174.832638 -43.783390 1.013546 3.293578 21.590236 2.909152 0.329700 2.985968 0.362654 0.535154 4.883945 0.598782 2.425760 18.365875 2.594181 -3.066090 20.823115 -4.766003 -2.209078 -3.461975 -4.429490 17.851555 0.202744 -5.329737 27.203616 -39.093626 -24.290151 176.621115 -48.878132 -157.459013 1.598443 -4.510208 -46.789629 -11.115509 2.695050 -3.807761 21.573011 -6.586515 -3.025992 150.721431 -52.186856 -175.715554 17.923701 -1.847471 37.041104 1.875041 -48.517630 7.407369 -148.752632 73.857083 -146.891315 -9.313296 -19.641223 7.232367 -0.107168 -0.510628 -0.056102 3.854115 -33.892789 -2.375719 173.462262 60.134806 173.218364 -1.845844 -38.868473 2.243171 0.152896 0.160212 0.103655
